<svg xmlns="http://www.w3.org/2000/svg" viewBox="0 0 189.57 81.95"><defs><style>.cls-1{fill:#fc0391;}</style></defs><g id="Lag_2" data-name="Lag 2"><g id="Lag_1-2" data-name="Lag 1"><path class="cls-1" d="M113.47,81.6c-4.54,0-8.5-.38-11.27-.64l-.84-.08.16-1.7.84.08c6.82.64,21,2,32.83-3.47a31.82,31.82,0,0,0,17.22-20,25.67,25.67,0,0,1-5.78,1c-11.83.62-16-3.32-17.47-6.73-1.78-4.19-.09-9.85,4.1-13.78,3.82-3.58,8.43-4.54,12.33-2.57,6.08,3.07,9.48,9.05,9.35,16.41a25.22,25.22,0,0,1-.25,3.11c15.74-6.63,23.62-29.16,27.1-43.29l1.66.4c-3.65,14.79-12,38.5-29.13,44.87-2.08,9.22-9.11,17.89-18.41,22.18C128.53,80.74,120.34,81.6,113.47,81.6Zm27.94-47.23a10.38,10.38,0,0,0-7,3.1c-3.69,3.45-5.21,8.33-3.7,11.87,1.74,4.11,7.35,6.13,15.81,5.7a24.33,24.33,0,0,0,6.3-1.17,23.7,23.7,0,0,0,.4-3.83c.12-6.78-2.87-12-8.42-14.85A7.45,7.45,0,0,0,141.41,34.37Z"/><path class="cls-1" d="M184.67,0c-2.76,4.36-7,9.6-11,12.57l8.55-1.18L189.57,16C187.17,11.63,185.42,5.11,184.67,0Z"/><path class="cls-1" d="M.46,63.41a2.19,2.19,0,0,1-.4-1.87,2.84,2.84,0,0,1,.11-.38l.11-.36a.24.24,0,0,1,.09-.11.19.19,0,0,1,.13,0L2.07,61a.16.16,0,0,1,.11.07.15.15,0,0,1,0,.13l-.1.26a1,1,0,0,0,.09.88,1.25,1.25,0,0,0,.84.51,1.25,1.25,0,0,0,1-.14,1.11,1.11,0,0,0,.5-.75.85.85,0,0,0-.18-.71,7.42,7.42,0,0,0-1-1,12.26,12.26,0,0,1-1-1,3,3,0,0,1-.59-1A2.34,2.34,0,0,1,1.61,57a3.14,3.14,0,0,1,.77-1.52,2.9,2.9,0,0,1,1.42-.82,3.85,3.85,0,0,1,1.79,0,3,3,0,0,1,1.9,1.08,2.35,2.35,0,0,1,.39,1.95c0,.07-.06.2-.11.39l-.09.27a.24.24,0,0,1-.09.11.19.19,0,0,1-.13,0l-1.57-.32a.13.13,0,0,1-.1-.07.19.19,0,0,1,0-.13l.09-.24a1.46,1.46,0,0,0,0-.17,1,1,0,0,0-.15-.79A1.22,1.22,0,0,0,5,56.3a1.27,1.27,0,0,0-.91.13,1.09,1.09,0,0,0-.5.77.92.92,0,0,0,.18.74,7.91,7.91,0,0,0,1,1l.25.23c.39.38.69.7.9.95a2.73,2.73,0,0,1,.49.84,1.92,1.92,0,0,1,0,1.07,3.12,3.12,0,0,1-.1.37,3.06,3.06,0,0,1-1.5,1.81,3.66,3.66,0,0,1-2.47.27A3.16,3.16,0,0,1,.46,63.41Z"/><path class="cls-1" d="M15.08,58.44a.16.16,0,0,1-.13,0l-3.66-.75a.08.08,0,0,0-.09.05l-.72,2.14s0,.07,0,.08l2.28.47a.14.14,0,0,1,.1.07.13.13,0,0,1,0,.12L12.47,62a.19.19,0,0,1-.1.1.2.2,0,0,1-.13,0L10,61.65s0,0-.05,0,0,0,0,0l-.75,2.21a.06.06,0,0,0,0,.08l3.65.75c.11,0,.15.08.12.2l-.44,1.33a.22.22,0,0,1-.09.1.15.15,0,0,1-.13,0L6.8,65.27c-.1,0-.14-.09-.12-.2L9.8,55.81a.22.22,0,0,1,.09-.1.18.18,0,0,1,.14,0l5.48,1.12a.16.16,0,0,1,.1.08.13.13,0,0,1,0,.12l-.45,1.33A.2.2,0,0,1,15.08,58.44Z"/><path class="cls-1" d="M25,58.76l1.59.33a.14.14,0,0,1,.1.07.13.13,0,0,1,0,.12l-3.12,9.26a.23.23,0,0,1-.09.11.16.16,0,0,1-.12,0l-1.61-.33a.14.14,0,0,1-.1-.07.15.15,0,0,1,0-.13l2-6.08s0-.05,0-.06,0,0-.07,0l-1.95,1.82a.22.22,0,0,1-.23.07l-.31-.06A.19.19,0,0,1,21,63.7l-.55-2.34a.05.05,0,0,0-.05,0s0,0,0,0l-2.05,6.08a.24.24,0,0,1-.09.11.19.19,0,0,1-.13,0l-1.59-.32a.16.16,0,0,1-.1-.08.13.13,0,0,1,0-.12l3.12-9.26a.13.13,0,0,1,.08-.1.16.16,0,0,1,.13,0l1.58.33a.17.17,0,0,1,.15.15l.73,3c0,.06,0,.06.08,0l2.52-2.37A.26.26,0,0,1,25,58.76Z"/><path class="cls-1" d="M25,68.83l3.12-9.26a.18.18,0,0,1,.09-.1.21.21,0,0,1,.13,0l1.59.33a.16.16,0,0,1,.11.07A.15.15,0,0,1,30,60l-3.12,9.25a.24.24,0,0,1-.09.11.13.13,0,0,1-.12,0L25.09,69A.14.14,0,0,1,25,68.83Z"/><path class="cls-1" d="M37.54,61.39a.19.19,0,0,1,0,.13l-.45,1.34A.22.22,0,0,1,37,63a.15.15,0,0,1-.13,0l-2.08-.43h0a.05.05,0,0,0,0,0L32.12,70.3a.22.22,0,0,1-.09.1.15.15,0,0,1-.13,0l-1.59-.33c-.1,0-.14-.09-.12-.2l2.59-7.68s0-.07,0-.08l-2-.41a.14.14,0,0,1-.1-.08.13.13,0,0,1,0-.12l.45-1.34a.31.31,0,0,1,.08-.11.15.15,0,0,1,.13,0l6.14,1.26A.16.16,0,0,1,37.54,61.39Z"/><path class="cls-1" d="M43.08,72.58l.13-1.41a.05.05,0,0,0,0-.07l-2.55-.52a.12.12,0,0,0-.09,0l-.76,1.28a.22.22,0,0,1-.23.1l-1.64-.34c-.13,0-.16-.09-.08-.2l5.57-8.77a.2.2,0,0,1,.24-.1l2,.41a.15.15,0,0,1,.14.17L45.08,73a.16.16,0,0,1-.2.15l-1.66-.35A.15.15,0,0,1,43.08,72.58Zm-1.6-3.42,1.8.37c.06,0,.09,0,.1-.07l.39-4.16s0-.06,0-.06,0,0-.06.05l-2.25,3.78Q41.42,69.15,41.48,69.16Z"/><path class="cls-1" d="M50.37,74.08,50.27,70s0-.07-.06-.07l-.86-.18a.06.06,0,0,0-.08,0L48,73.56a.19.19,0,0,1-.09.11.17.17,0,0,1-.12,0l-1.59-.32a.15.15,0,0,1-.12-.2l3.12-9.26a.22.22,0,0,1,.09-.1.17.17,0,0,1,.14,0l3.31.68a2.42,2.42,0,0,1,1.62,1,2.53,2.53,0,0,1,.28,1.92,4.5,4.5,0,0,1-.13.51,3.42,3.42,0,0,1-.89,1.44,3,3,0,0,1-1.41.73.07.07,0,0,0-.06.09l.23,4.25v.06c0,.09-.09.13-.2.1l-1.66-.34A.15.15,0,0,1,50.37,74.08Zm.22-8.21-.78,2.34c0,.05,0,.07,0,.08l1.19.25a1.21,1.21,0,0,0,1-.23,1.58,1.58,0,0,0,.59-1,1.07,1.07,0,0,0-.11-.82,1,1,0,0,0-.66-.42l-1.18-.25A.11.11,0,0,0,50.59,65.87Z"/><path class="cls-1" d="M59,75.27a3.69,3.69,0,0,1-2.39.24l-3-.62a.15.15,0,0,1-.12-.21l3.11-9.25a.21.21,0,0,1,.1-.11.2.2,0,0,1,.13,0l2.84.58a3.34,3.34,0,0,1,1.93,1A2,2,0,0,1,62,68.69l-.12.45a2.55,2.55,0,0,1-1.71,1.75c-.05,0-.07,0-.05.08a2.09,2.09,0,0,1,.57,2c0,.09-.06.23-.12.43A2.92,2.92,0,0,1,59,75.27Zm-1-1.59a1.6,1.6,0,0,0,.62-.85s0-.13.07-.24a1.11,1.11,0,0,0-.11-.82,1,1,0,0,0-.7-.44l-1.14-.23s-.07,0-.1.05l-.79,2.35a.07.07,0,0,0,.06.09l1.13.23A1.24,1.24,0,0,0,58.07,73.68ZM58,67.39l-.72,2.15s0,.07,0,.08l1,.21a1.27,1.27,0,0,0,1.56-.89,1.24,1.24,0,0,0,.06-.2,1,1,0,0,0-.13-.78,1.1,1.1,0,0,0-.72-.42l-1-.21S58,67.34,58,67.39Z"/><path class="cls-1" d="M69.26,69.58a.17.17,0,0,1-.12,0l-3.66-.75a.1.1,0,0,0-.1.06L64.67,71s0,.08,0,.09l2.27.46a.14.14,0,0,1,.11.07.15.15,0,0,1,0,.13l-.44,1.33a.16.16,0,0,1-.09.11.22.22,0,0,1-.14,0l-2.27-.47h-.06l0,0L63.32,75s0,.07,0,.08l3.65.75c.11,0,.14.09.12.2l-.45,1.33a.23.23,0,0,1-.08.11.2.2,0,0,1-.13,0L61,76.41c-.11,0-.14-.09-.12-.2L64,67a.15.15,0,0,1,.09-.1.17.17,0,0,1,.14,0L69.69,68a.14.14,0,0,1,.11.07.15.15,0,0,1,0,.13l-.45,1.32A.24.24,0,0,1,69.26,69.58Z"/><path class="cls-1" d="M68.5,77.37a2.41,2.41,0,0,1-.36-2c0-.1.07-.24.12-.45l.31-.9a.24.24,0,0,1,.09-.11.16.16,0,0,1,.12,0l1.59.32a.14.14,0,0,1,.12.2l-.32.92a.74.74,0,0,0,0,.19.94.94,0,0,0,.79,1.22,1.24,1.24,0,0,0,.94-.16,1.33,1.33,0,0,0,.6-.78l2.25-6.7a.22.22,0,0,1,.09-.1.15.15,0,0,1,.13,0l1.6.33a.13.13,0,0,1,.1.07.15.15,0,0,1,0,.13l-2.26,6.68a3.11,3.11,0,0,1-.88,1.41,3.2,3.2,0,0,1-1.42.78,3.83,3.83,0,0,1-1.72,0A2.91,2.91,0,0,1,68.5,77.37Z"/><path class="cls-1" d="M74.9,79.09,78,69.83a.22.22,0,0,1,.09-.1.18.18,0,0,1,.14,0l2.92.6a3,3,0,0,1,1.88,1.06,2.31,2.31,0,0,1,.38,1.92l-.12.43-1.35,4a3.12,3.12,0,0,1-1.53,1.85,3.6,3.6,0,0,1-2.49.3L75,79.29C74.92,79.27,74.88,79.2,74.9,79.09ZM77.39,78l1.13.21a1.14,1.14,0,0,0,.93-.19,1.91,1.91,0,0,0,.67-.9l1.2-3.59a.77.77,0,0,0,.07-.25,1.27,1.27,0,0,0-.09-.88,1,1,0,0,0-.68-.45l-1.11-.22a.1.1,0,0,0-.1.05l-2.06,6.13S77.35,78,77.39,78Z"/><path class="cls-1" d="M90.74,74a.15.15,0,0,1-.13,0L87,73.27s-.07,0-.1,0l-.72,2.13a.07.07,0,0,0,0,.09l2.27.47a.11.11,0,0,1,.1.07.17.17,0,0,1,0,.12l-.44,1.33a.24.24,0,0,1-.09.11.23.23,0,0,1-.14,0l-2.28-.47h-.05s0,0,0,0l-.75,2.2s0,.08,0,.09l3.65.75c.1,0,.14.08.12.2l-.45,1.32a.24.24,0,0,1-.09.11.15.15,0,0,1-.13,0l-5.48-1.12c-.1,0-.14-.09-.12-.2l3.12-9.26a.19.19,0,0,1,.1-.1.15.15,0,0,1,.13,0l5.48,1.12a.13.13,0,0,1,.1.07.15.15,0,0,1,0,.13l-.45,1.33A.22.22,0,0,1,90.74,74Z"/></g></g></svg>
