<svg xmlns="http://www.w3.org/2000/svg" viewBox="0 0 1920 1080"><defs><style>.cls-1{fill:#1e1f23;}.cls-2{fill:#18191c;}</style></defs><g id="Lag_2" data-name="Lag 2"><g id="Lag_1-2" data-name="Lag 1"><rect class="cls-1" width="1920" height="1080"/><path class="cls-2" d="M929.83,585.53c-5.17,5.59-10.56,11-15.4,16.85-2.15,2.6-3.19,6.13-4.73,9.23,3.9-.23,8,.22,11.64-.83,5.75-1.66,8.49-6.06,9.78-12.1,5.74-27,12.43-53.74,24.21-78.95,14.75-31.59,33.81-60.44,56-87.15,9.2-11.08,20.3-20.65,31-30.38,2.46-2.23,6.89-2.29,10.41-3.34.73,3.47,2.86,7.37,2,10.35-5.12,17-10,34.23-16.73,50.67-19,46.7-47.61,87.63-79.21,126.51-6,7.34-13.67,13.26-20.58,19.83-5.95,5.65-3.68,21,4.15,22.7,3.84.83,9.33-2.15,13-4.87,8.83-6.57,16.69-14.44,25.58-20.92,5.27-3.83,11.63-8.6,18.57-4.12,3.62,2.33,6.19,6.63,8.53,10.47,2,3.35,2.58,7.63,4.69,10.93,5.4,8.43,14.66,11.11,21.8,4.41,16.23-15.23,31.37-31.64,46.72-47.79,1.19-1.25,1-4.26.78-6.36-4.88-37.3,4.79-71.6,20.93-104.74,11.47-23.55,26.08-44.6,46.37-61.36,9.8-8.08,18.27-4.61,20,8.11,2.25,16.32-4,31.13-8.85,46.12-2.17,6.62-8,14.5-6.07,19.26,1.78,4.31,11.93,5.18,18.41,7.51,3.91,1.41,7.86,2.71,11.79,4.06l-.48,2.42c-4.58-.75-9.19-1.34-13.73-2.3-6.57-1.38-14.28-5.85-19.31-3.74s-6.82,10.9-10.55,16.42c-15.13,22.42-30.15,44.93-45.92,66.9-4,5.61-5.79,10.53-2.8,16.42,4,7.93,7.82,16.2,13.25,23.12,5.87,7.51,13.41,8.09,22.41,4.31,17.33-7.29,34.43-15.25,52.12-21.56,15-5.35,30.3-5.89,46.52-2,14.91,3.62,31,2.05,46.33,4.32,19.75,2.92,39.3,7.22,58.88,11.23,27.63,5.66,55.38,9.85,83.66,6.95,5.69-.59,11.12-3.41,16.76-4.82,1.53-.38,3.41.64,5.13,1-.51,1.89-.56,5.06-1.62,5.45a56,56,0,0,1-13.78,3.43c-37.41,3.6-73.87-.72-110.08-11.07-16.17-4.62-33.53-5.6-50.46-6.92-15.22-1.19-30.3-1.38-45.43-5.19-8.94-2.25-19.76-.73-28.83,2.05-16,4.89-31.25,12-46.81,18.28-2.32.93-4.57,2-6.83,3.09-22.12,10.49-37-3.35-44-20.62-1.69-4.16-3.13-8.42-5-13.48-10,10.79-19.28,21.19-29,31.11a132.94,132.94,0,0,1-17.55,15.22c-15.49,11-30.84-.11-34.5-15.1-3-12.3-8.52-14.85-19.11-7.71-6.4,4.32-11.93,9.91-17.86,14.93-4.21,3.57-8.15,7.51-12.67,10.62-9.73,6.67-18.78,3.51-22.52-7.6-1.11-3.27-1.81-6.68-2.77-10.29-4.79,1.68-9.15,4.23-13.63,4.47-4,.21-8.24-2.12-12.38-3.33-11.83,7.62-24,16.4-37.07,23.61-14.41,8-29.82,12.12-46.16,4.74a6.19,6.19,0,0,0-4.89.06c-23.33,13.94-47.73,10.81-72.95,6.44-27.08-4.69-51.1-15.34-73.93-30-9.46-6.07-20.43-6.21-31.36-4-16,3.3-30.16,10.69-43.45,20-3.9,2.72-8,5.15-12,7.7-14.08,8.9-26.12,4-29.88-12.41-1.17-5.08-1.9-10.26-3.18-17.26-4.27,5.46-7.72,9.78-11.08,14.17-13.15,17.19-27.23,33.5-45.51,45.47a51.78,51.78,0,0,1-14.35,6.32c-7.79,2.18-13.29-2-12.54-10a93.26,93.26,0,0,1,4.81-23.41c5.12-13.85,11.44-27.26,17.26-40.86.55-1.29,1.08-2.6,1.62-3.9l-3.12-2.85c-1.38,2.63-2.1,6.32-4.28,7.72-8.76,5.64-17.5,11.8-27.13,15.45-12.89,4.88-21.53.54-30.65-13.67-2.65,5.35-5.24,9.68-7,14.32-6.3,16.64-14.8,32-27.6,44.41a46.87,46.87,0,0,1-15.5,10.06c-7,2.66-11.64-2.38-8.95-9.39A94.9,94.9,0,0,1,372.91,649c21.43-31.52,43.67-62.51,64.68-94.31,8.67-13.12,15.57-27.54,22.16-41.89,3.39-7.38,7.17-12.76,17.08-13.92-3.64,7.61-1.45,16.63-10.43,21.52-2.82,1.54-4.9,5.05-6.51,8.08-7.89,14.83-15.16,30-23.36,44.65-3.94,7-5.42,14.68-7.53,22.14-4.54,16.14,4.57,26.17,20.9,22.74,10.05-2.11,18.71-7.22,26.87-14,21-17.46,33.33-41.17,47.72-63.45,4.61-7.13,9.53-14.06,14.69-21.63-4-1.55-7.72-2.7-11.12-4.47-1.06-.55-1.27-2.75-1.87-4.2,1.27-.45,3.23-1.69,3.73-1.25,8.92,7.78,14.67,2.47,20.1-4.59.11-.14.46-.09,2.09-.35-.23,3.39-.45,6.5-.71,10.15l20.09,2.6-.15,2.12c-6.1,0-12.21-.25-18.28.13-2.39.15-5.67,1-6.87,2.77-14.9,21.39-30.26,42.52-43.94,64.68-13.85,22.43-25.38,46.24-31.84,72-1.26,5-.27,10.6-.31,15.92,5.42-1.26,11.35-1.51,16.18-4,16.27-8.24,27.68-22.18,39.11-35.83a204.3,204.3,0,0,0,18.28-24.82,55.16,55.16,0,0,0,6.53-18.75c4.92-28.48,16.88-54.22,31.55-78.53,13.31-22.06,28.47-43.06,43.42-64.09,13.54-19,32.88-31.39,53-42.34,2.44-1.33,7.27-.6,9.61,1.09,1.55,1.12,1.89,6.41.61,8.54-7.87,13.06-15.82,26.14-24.74,38.49-27.47,38-55.4,75.66-83.11,113.49-7.71,10.52-15.21,21.19-22.92,31.71-7.23,9.87-5.43,32.15,3.32,40.69,4.11,4,8.36,3.88,13,1.1,9.66-5.83,19.21-11.86,29-17.39,14.76-8.29,30-14.92,47.61-14,12.49.65,22.45,7.06,32.33,13.31,24.06,15.18,50.92,20.16,78.46,23.94,14.92,2.05,28.91,1.38,42.62-4.72,1.6-.71,3.27-1.28,4.82-2.08.59-.31.93-1.1,1.44-1.74C803,627.26,800,615.37,808,603.47a176.58,176.58,0,0,1,18-22.2c25.93-27.54,54.48-51.92,88-70a125,125,0,0,1,18.7-7.89c5.46-1.87,10.89-1.82,14.87,3.67,3.7,5.11,4.8,10.48,1.94,16.22a79.91,79.91,0,0,1-5,7.78l-2.06-1a46.63,46.63,0,0,1,1.86-5.53c2.37-5,3-10.78-1.54-13.72-3.28-2.12-9.52-2.45-13.12-.76-12.44,5.82-24.92,12-36.25,19.66a346.5,346.5,0,0,0-64,55.73c-5,5.61-9.57,11.62-14.3,17.47-5.81,7.18-7.93,15.15-4.08,23.85,4.17,9.42,12,14.12,22,14.57,18,.8,33.7-6.24,47.12-17.12s25.05-23.62,37.67-35.35c2.8-2.61,6.38-4.38,9.61-6.54ZM1051.6,404.74c-37.25,8.58-117.3,148-113.51,196.75C989.38,542.8,1032.43,481.57,1051.6,404.74ZM554.86,590.35l2.16,1c3.08-4.15,6.19-8.27,9.23-12.44,25.21-34.65,50.3-69.38,75.66-103.92,12-16.36,24.64-32.25,36.67-48.59,2.95-4,4.65-9,6.92-13.47l-1.65-2c-3.7.89-8.12.8-11,2.86-11.75,8.47-24.48,16.25-34.21,26.73-32,34.52-56,74.45-73.79,118C560.66,568.7,558.15,579.68,554.86,590.35Zm533.84-21.46c21.53-27.89,41.35-54.55,56.24-85.4-4.61-1.39-8.37-2.73-12.23-3.63-3.64-.84-7.4-1.21-11.1-1.81l-17-2.75C1091.47,503.18,1083.26,533.65,1088.7,568.89Zm19.55-101.29c11.78,3.26,22.82,6.47,34,9.26,1.85.46,5.67-.4,6-1.5,5.87-17.53,11.88-35.06,16.49-52.95,1.13-4.35-2.61-10-4.12-15-5,2.15-11.14,3.14-14.85,6.68C1129.83,429.27,1117.56,447.24,1108.25,467.6ZM366.88,672.21l1.83,1.85c3.51-1.4,7.43-2.23,10.48-4.32,10.48-7.15,19.1-16,24.39-27.88,2.66-5.94,5.75-11.69,8.63-17.54,5.93-12.08,12.41-24,11.55-40-4.7,7-8.53,12.7-12.43,18.38-13.18,19.21-26.49,38.33-39.47,57.67C369.52,663.85,368.51,668.24,366.88,672.21Z"/><path class="cls-2" d="M712.9,517.71c-.62,6.34-1,10.24-1.42,14.61-5.81-1.56-6.52-6.25-6.22-10.37C705.37,520.52,709.67,519.41,712.9,517.71Z"/><path class="cls-2" d="M1301,518.09a92.2,92.2,0,0,1-6.21-9.25c-.55-1,.64-3,1-4.54,1.64.65,4.2.87,4.76,2,1.52,3.17,2.18,6.74,3.18,10.16Z"/></g></g></svg>
