<svg xmlns="http://www.w3.org/2000/svg" viewBox="0 0 166.88 72.76"><defs><style>.cls-1{fill:#f4efe6;}</style></defs><g id="Lag_2" data-name="Lag 2"><g id="Lag_1-2" data-name="Lag 1"><path class="cls-1" d="M13.72.23H17a.29.29,0,0,1,.23.1.28.28,0,0,1,.06.25l-2.41,19.6a.47.47,0,0,1-.13.25.31.31,0,0,1-.24.1H11.2a.28.28,0,0,1-.29-.35L12.48,7.31c0-.08,0-.12,0-.13s-.08,0-.12.07L9.2,11.66a.49.49,0,0,1-.43.23H8.13a.4.4,0,0,1-.38-.23l-2-4.41c0-.06-.08-.08-.12-.07s0,.05,0,.13L4,20.18a.47.47,0,0,1-.13.25.33.33,0,0,1-.25.1H.3a.26.26,0,0,1-.23-.1A.28.28,0,0,1,0,20.18L2.41.58A.32.32,0,0,1,2.53.33a.42.42,0,0,1,.26-.1H6a.37.37,0,0,1,.38.23L9.08,6.18q.06.17.18,0l4-5.72A.49.49,0,0,1,13.72.23Z"/><path class="cls-1" d="M27.82,20.24,27.5,17.4a.11.11,0,0,0-.12-.12H22.13c-.05,0-.11,0-.17.12l-1,2.84a.41.41,0,0,1-.41.29H17.18c-.28,0-.35-.12-.24-.37L24.4.52a.42.42,0,0,1,.43-.29h4.09a.31.31,0,0,1,.35.29l2.67,19.64c0,.25-.12.37-.35.37H28.17C28,20.53,27.84,20.44,27.82,20.24Zm-4.55-6.12H27a.15.15,0,0,0,.17-.17l-.93-8.41c0-.08,0-.12,0-.12s-.07,0-.09.12L23.15,14C23.13,14.07,23.17,14.12,23.27,14.12Z"/><path class="cls-1" d="M46.81.33a.28.28,0,0,1,.06.25l-.35,2.84a.47.47,0,0,1-.13.25.33.33,0,0,1-.24.1h-4.3a.13.13,0,0,0-.1,0,.15.15,0,0,0,0,.11l-2,16.26a.47.47,0,0,1-.13.25.33.33,0,0,1-.25.1H36.05c-.21,0-.31-.11-.31-.35l2-16.26c0-.1,0-.15-.12-.15H33.47a.29.29,0,0,1-.23-.1.28.28,0,0,1-.06-.25L33.53.58a.47.47,0,0,1,.13-.25.37.37,0,0,1,.25-.1H46.58A.29.29,0,0,1,46.81.33Z"/><path class="cls-1" d="M58,.33a.37.37,0,0,1,.25-.1h3.3a.33.33,0,0,1,.24.1.3.3,0,0,1,0,.25l-2.4,19.6a.55.55,0,0,1-.13.25.33.33,0,0,1-.25.1H55.74a.29.29,0,0,1-.23-.1.31.31,0,0,1-.06-.25l1-7.94q0-.15-.12-.15H51.8c-.1,0-.14.05-.14.15l-1,7.94a.47.47,0,0,1-.13.25.33.33,0,0,1-.25.1H47c-.22,0-.32-.11-.32-.35L49.1.58a.44.44,0,0,1,.15-.25.42.42,0,0,1,.26-.1h3.28a.33.33,0,0,1,.23.1.28.28,0,0,1,.06.25l-1,7.83q0,.15.12.15h4.52a.14.14,0,0,0,.1-.05.13.13,0,0,0,0-.1l1-7.83A.47.47,0,0,1,58,.33Z"/><path class="cls-1" d="M62.3,20.18,64.71.58a.42.42,0,0,1,.14-.25.44.44,0,0,1,.26-.1h3.28a.31.31,0,0,1,.23.1.28.28,0,0,1,.06.25l-2.41,19.6a.47.47,0,0,1-.13.25.33.33,0,0,1-.24.1H62.62C62.41,20.53,62.3,20.42,62.3,20.18Z"/><path class="cls-1" d="M79.26,20.24l-.32-2.84c0-.08,0-.12-.11-.12H73.58a.21.21,0,0,0-.17.12l-1,2.84a.4.4,0,0,1-.41.29H68.62c-.27,0-.35-.12-.23-.37L75.84.52a.44.44,0,0,1,.44-.29h4.09a.3.3,0,0,1,.34.29l2.67,19.64c0,.25-.11.37-.35.37H79.61C79.4,20.53,79.28,20.44,79.26,20.24Zm-4.55-6.12h3.71c.12,0,.18,0,.18-.17l-.93-8.41q0-.12-.06-.12s-.07,0-.09.12L74.6,14C74.58,14.07,74.61,14.12,74.71,14.12Z"/><path class="cls-1" d="M86.05,19.43a4.44,4.44,0,0,1-1.57-3.54q0-.23.06-.81l.09-.75a.47.47,0,0,1,.13-.25A.33.33,0,0,1,85,14h3.24a.3.3,0,0,1,.24.1.3.3,0,0,1,.05.25l-.08.55A2,2,0,0,0,89,16.59a2.53,2.53,0,0,0,1.87.67,2.56,2.56,0,0,0,1.87-.67,2.25,2.25,0,0,0,.69-1.68,1.7,1.7,0,0,0-.66-1.35A14.94,14.94,0,0,0,90.34,12,27.44,27.44,0,0,1,88,10.5a6.26,6.26,0,0,1-1.57-1.7,4.56,4.56,0,0,1-.65-2.48A6.14,6.14,0,0,1,86.63,3,6.07,6.07,0,0,1,89.11.78,7.84,7.84,0,0,1,92.63,0a6.15,6.15,0,0,1,4.21,1.38,4.69,4.69,0,0,1,1.56,3.7c0,.15,0,.42-.05.81l-.06.58a.51.51,0,0,1-.13.24.34.34,0,0,1-.25.11H94.66a.3.3,0,0,1-.23-.11.26.26,0,0,1-.06-.24L94.43,6a1.56,1.56,0,0,0,0-.35,2,2,0,0,0-.62-1.5,2.43,2.43,0,0,0-1.73-.59,2.51,2.51,0,0,0-1.75.62,2.22,2.22,0,0,0-.69,1.73,1.81,1.81,0,0,0,.67,1.39,15.75,15.75,0,0,0,2.47,1.57l.58.34c.92.6,1.65,1.11,2.17,1.51a5.47,5.47,0,0,1,1.31,1.48,4.07,4.07,0,0,1,.52,2.09,7.59,7.59,0,0,1-.06.78,6.11,6.11,0,0,1-2.23,4.19,7.33,7.33,0,0,1-4.79,1.55A6.34,6.34,0,0,1,86.05,19.43Z"/><path class="cls-1" d="M0,46.18l2.4-19.6a.44.44,0,0,1,.15-.25.42.42,0,0,1,.26-.1H6.13a.33.33,0,0,1,.23.1.28.28,0,0,1,.06.25l-.93,7.71c0,.06,0,.1,0,.12s.08,0,.1-.06l6-7.89a.52.52,0,0,1,.43-.23H15.7c.17,0,.26.06.26.18a.52.52,0,0,1-.09.23L9.64,35a.49.49,0,0,0,0,.2l4.17,11a.29.29,0,0,1,0,.14c0,.18-.1.26-.32.26H9.87a.33.33,0,0,1-.35-.26l-3-7.94c0-.12-.12-.12-.2,0L4.79,40.21a.49.49,0,0,0-.06.17L4,46.18a.47.47,0,0,1-.13.25.33.33,0,0,1-.25.1H.36C.14,46.53,0,46.42,0,46.18Z"/><path class="cls-1" d="M16.54,45.39A4.79,4.79,0,0,1,15,41.66q0-.28.06-.93l.23-1.91a.47.47,0,0,1,.13-.25.33.33,0,0,1,.25-.1H19c.22,0,.32.12.32.35L19,40.76a2.15,2.15,0,0,0,0,.41,2.11,2.11,0,0,0,.55,1.52,2,2,0,0,0,1.51.57,2.57,2.57,0,0,0,1.8-.7,2.76,2.76,0,0,0,.87-1.8l1.74-14.18a.47.47,0,0,1,.13-.25.37.37,0,0,1,.25-.1h3.3a.33.33,0,0,1,.24.1.3.3,0,0,1,.05.25L27.7,40.73a6.54,6.54,0,0,1-1.17,3.16A6.62,6.62,0,0,1,24,46a7.66,7.66,0,0,1-3.39.75A5.81,5.81,0,0,1,16.54,45.39Z"/><path class="cls-1" d="M53.16,29.64a.35.35,0,0,1-.26.1H45.51a.13.13,0,0,0-.15.15l-.55,4.52q-.06.15.12.15h4.55a.26.26,0,0,1,.23.1.26.26,0,0,1,.06.24l-.35,2.82a.44.44,0,0,1-.13.24.31.31,0,0,1-.24.1H44.49c-.07,0-.13,0-.17.15l-.55,4.67c0,.1,0,.14.11.14h7.4a.31.31,0,0,1,.23.1.28.28,0,0,1,.06.25l-.35,2.81a.47.47,0,0,1-.13.25.33.33,0,0,1-.25.1H39.68a.28.28,0,0,1-.29-.35l.35-2.75a.13.13,0,0,0-.15-.15H34.66c-.06,0-.12,0-.2.12l-1.57,2.87a.45.45,0,0,1-.43.26H29a.32.32,0,0,1-.28-.1c0-.07,0-.17,0-.3L39.88,26.49a.48.48,0,0,1,.44-.26h13a.31.31,0,0,1,.23.1.28.28,0,0,1,.06.25l-.35,2.81A.32.32,0,0,1,53.16,29.64ZM36.37,40.07a.11.11,0,0,0,.09,0H40c.1,0,.14,0,.14-.14l1-8.44c0-.08,0-.12,0-.12a.17.17,0,0,0-.13.09L36.37,40A.13.13,0,0,0,36.37,40.07Z"/><path class="cls-1" d="M62.5,46.24l-1.85-8q-.06-.12-.15-.12H58.73c-.09,0-.14.05-.14.15l-1,7.91a.47.47,0,0,1-.13.25.33.33,0,0,1-.25.1H54c-.22,0-.32-.11-.32-.35L56,26.58a.38.38,0,0,1,.14-.25.42.42,0,0,1,.26-.1h6.85a4.81,4.81,0,0,1,3.62,1.38,5.09,5.09,0,0,1,1.33,3.7,6.91,6.91,0,0,1,0,1A6.72,6.72,0,0,1,67,35.57a5.9,5.9,0,0,1-2.48,2,.14.14,0,0,0-.08.2l2.17,8.33v.11c0,.2-.12.29-.35.29H62.85C62.64,46.53,62.52,46.44,62.5,46.24ZM59.6,29.89l-.61,5c0,.09,0,.14.12.14h2.46a2.41,2.41,0,0,0,1.92-.86,3.26,3.26,0,0,0,.75-2.24,2.18,2.18,0,0,0-.55-1.57,1.94,1.94,0,0,0-1.48-.58H59.78Q59.66,29.74,59.6,29.89Z"/><path class="cls-1" d="M1.91,71.3A5.14,5.14,0,0,1,.36,67.37c0-.19,0-.52,0-1l1-8.06A7.41,7.41,0,0,1,2.63,55a6.66,6.66,0,0,1,2.52-2.22A7.63,7.63,0,0,1,8.62,52a5.94,5.94,0,0,1,4.19,1.42,4.92,4.92,0,0,1,1.55,3.83q0,.28-.06.93v.14a.5.5,0,0,1-.13.26.3.3,0,0,1-.24.12l-3.34.14c-.21,0-.31-.1-.29-.31l.06-.38a2.36,2.36,0,0,0,0-.44,2.21,2.21,0,0,0-.58-1.61,2.16,2.16,0,0,0-1.6-.59,2.69,2.69,0,0,0-1.9.72,3.11,3.11,0,0,0-.91,1.92l-1,8.5a2.24,2.24,0,0,0,0,.43,2.16,2.16,0,0,0,.59,1.58,2.14,2.14,0,0,0,1.58.6,2.66,2.66,0,0,0,1.9-.72,2.94,2.94,0,0,0,.92-1.89l0-.38c0-.21.14-.32.37-.32l3.28.14a.28.28,0,0,1,.23.11.26.26,0,0,1,.06.24v.09a7.49,7.49,0,0,1-1.2,3.28A6.62,6.62,0,0,1,9.56,72a7.71,7.71,0,0,1-3.46.76A5.83,5.83,0,0,1,1.91,71.3Z"/><path class="cls-1" d="M26.41,52.33a.37.37,0,0,1,.25-.1H30a.33.33,0,0,1,.24.1.3.3,0,0,1,.05.25l-2.4,19.6a.55.55,0,0,1-.13.25.33.33,0,0,1-.25.1H24.16a.29.29,0,0,1-.23-.1.28.28,0,0,1-.06-.25l1-7.94q0-.15-.12-.15H20.22c-.1,0-.14,0-.14.15l-1,7.94a.47.47,0,0,1-.13.25.33.33,0,0,1-.25.1H15.44c-.22,0-.32-.11-.32-.35l2.4-19.6a.44.44,0,0,1,.15-.25.42.42,0,0,1,.26-.1h3.28a.33.33,0,0,1,.23.1.28.28,0,0,1,.06.25l-1,7.83q0,.15.12.15h4.52a.14.14,0,0,0,.1-.05.13.13,0,0,0,0-.1l1-7.83A.47.47,0,0,1,26.41,52.33Z"/><path class="cls-1" d="M39.59,72.24l-1.85-8q-.06-.12-.15-.12H35.82c-.09,0-.14,0-.14.15l-1,7.91a.47.47,0,0,1-.13.25.33.33,0,0,1-.25.1H31c-.22,0-.32-.11-.32-.35l2.41-19.6a.38.38,0,0,1,.14-.25.42.42,0,0,1,.26-.1h6.85A4.81,4.81,0,0,1,44,53.61a5.09,5.09,0,0,1,1.33,3.7,8.58,8.58,0,0,1,0,1,6.72,6.72,0,0,1-1.18,3.22,5.9,5.9,0,0,1-2.48,2,.13.13,0,0,0-.08.2l2.17,8.33v.11c0,.2-.12.29-.35.29H39.94C39.73,72.53,39.61,72.44,39.59,72.24Zm-2.9-16.35-.61,5c0,.09,0,.14.12.14h2.46a2.41,2.41,0,0,0,1.92-.86,3.26,3.26,0,0,0,.75-2.24,2.18,2.18,0,0,0-.55-1.57,1.94,1.94,0,0,0-1.48-.58H36.87Q36.75,55.74,36.69,55.89Z"/><path class="cls-1" d="M46,72.18l2.41-19.6a.48.48,0,0,1,.14-.25.44.44,0,0,1,.26-.1h3.28a.29.29,0,0,1,.23.1.28.28,0,0,1,.06.25l-2.41,19.6a.41.41,0,0,1-.13.25.31.31,0,0,1-.24.1H46.29C46.08,72.53,46,72.42,46,72.18Z"/><path class="cls-1" d="M54.5,71.43a4.41,4.41,0,0,1-1.57-3.54q0-.23.06-.81l.09-.75a.47.47,0,0,1,.13-.25.31.31,0,0,1,.24-.1H56.7a.26.26,0,0,1,.23.1.28.28,0,0,1,.06.25l-.09.55a2.05,2.05,0,0,0,.54,1.71,2.53,2.53,0,0,0,1.87.67,2.58,2.58,0,0,0,1.87-.67,2.25,2.25,0,0,0,.68-1.68,1.69,1.69,0,0,0-.65-1.35A14.94,14.94,0,0,0,58.79,64,26,26,0,0,1,56.4,62.5a6.26,6.26,0,0,1-1.57-1.7,4.56,4.56,0,0,1-.65-2.48,6.14,6.14,0,0,1,.9-3.32,6,6,0,0,1,2.48-2.22A7.84,7.84,0,0,1,61.08,52a6.15,6.15,0,0,1,4.21,1.38,4.69,4.69,0,0,1,1.56,3.7q0,.22-.06.81l-.05.58a.45.45,0,0,1-.14.24.3.3,0,0,1-.24.11H63.11a.28.28,0,0,1-.23-.11.26.26,0,0,1-.06-.24l.06-.52a1.56,1.56,0,0,0,0-.35,2,2,0,0,0-.63-1.5,2.41,2.41,0,0,0-1.72-.59,2.54,2.54,0,0,0-1.76.62,2.24,2.24,0,0,0-.68,1.73,1.81,1.81,0,0,0,.67,1.39,15.53,15.53,0,0,0,2.46,1.57l.58.34c.93.6,1.66,1.11,2.18,1.51a5.27,5.27,0,0,1,1.3,1.48,4,4,0,0,1,.53,2.09,7.59,7.59,0,0,1-.06.78,6.11,6.11,0,0,1-2.23,4.19,7.35,7.35,0,0,1-4.79,1.55A6.34,6.34,0,0,1,54.5,71.43Z"/><path class="cls-1" d="M82.25,52.33a.28.28,0,0,1,.06.25L82,55.42a.47.47,0,0,1-.13.25.33.33,0,0,1-.25.1H77.29a.13.13,0,0,0-.1,0,.15.15,0,0,0,0,.11l-2,16.26a.55.55,0,0,1-.13.25.33.33,0,0,1-.25.1H71.49c-.21,0-.32-.11-.32-.35l2-16.26c0-.1,0-.15-.11-.15H68.91a.28.28,0,0,1-.29-.35L69,52.58a.47.47,0,0,1,.13-.25.37.37,0,0,1,.25-.1H82A.31.31,0,0,1,82.25,52.33Z"/><path class="cls-1" d="M82.13,72.18l2.41-19.6a.44.44,0,0,1,.15-.25.4.4,0,0,1,.26-.1h3.27a.33.33,0,0,1,.24.1.3.3,0,0,1,.05.25l-2.4,19.6a.55.55,0,0,1-.13.25.33.33,0,0,1-.25.1H82.45C82.24,72.53,82.13,72.42,82.13,72.18Z"/><path class="cls-1" d="M99.1,72.24l-.32-2.84a.11.11,0,0,0-.12-.12H93.42a.24.24,0,0,0-.18.12l-1,2.84a.41.41,0,0,1-.41.29H88.46c-.27,0-.35-.12-.23-.37l7.45-19.64a.43.43,0,0,1,.43-.29h4.09a.31.31,0,0,1,.35.29l2.67,19.64c0,.25-.12.37-.35.37H99.45C99.23,72.53,99.12,72.44,99.1,72.24Zm-4.55-6.12h3.71a.15.15,0,0,0,.17-.17l-.92-8.41q0-.12-.06-.12s-.07,0-.09.12L94.43,66C94.41,66.07,94.45,66.12,94.55,66.12Z"/><path class="cls-1" d="M117.5,52.33a.37.37,0,0,1,.25-.1H121a.29.29,0,0,1,.23.1.28.28,0,0,1,.06.25l-2.4,19.6a.48.48,0,0,1-.14.25.3.3,0,0,1-.24.1h-3.42a.35.35,0,0,1-.38-.26l-3.92-11.8c0-.06-.07-.09-.11-.09s-.06,0-.06.12l-1.42,11.68a.47.47,0,0,1-.13.25.33.33,0,0,1-.25.1H105.6c-.22,0-.32-.11-.32-.35l2.4-19.6a.44.44,0,0,1,.15-.25.4.4,0,0,1,.26-.1h3.39a.34.34,0,0,1,.35.26l3.94,11.81s0,.08.09.08.07,0,.09-.11l1.42-11.69A.47.47,0,0,1,117.5,52.33Z"/><path class="cls-1" d="M123.46,71.43a4.41,4.41,0,0,1-1.57-3.54q0-.23.06-.81l.09-.75a.47.47,0,0,1,.13-.25.33.33,0,0,1,.24-.1h3.25a.3.3,0,0,1,.24.1.3.3,0,0,1,0,.25l-.08.55a2,2,0,0,0,.53,1.71,2.53,2.53,0,0,0,1.87.67,2.58,2.58,0,0,0,1.87-.67,2.25,2.25,0,0,0,.68-1.68,1.69,1.69,0,0,0-.65-1.35A14.94,14.94,0,0,0,127.75,64a27.44,27.44,0,0,1-2.39-1.51,6.26,6.26,0,0,1-1.57-1.7,4.56,4.56,0,0,1-.65-2.48A6.14,6.14,0,0,1,124,55a6,6,0,0,1,2.48-2.22A7.84,7.84,0,0,1,130,52a6.15,6.15,0,0,1,4.21,1.38,4.69,4.69,0,0,1,1.56,3.7q0,.22-.06.81l-.05.58a.51.51,0,0,1-.13.24.34.34,0,0,1-.25.11h-3.25a.3.3,0,0,1-.23-.11.26.26,0,0,1-.06-.24l.06-.52a1.56,1.56,0,0,0,0-.35,2,2,0,0,0-.62-1.5,2.45,2.45,0,0,0-1.73-.59,2.49,2.49,0,0,0-1.75.62,2.22,2.22,0,0,0-.69,1.73,1.81,1.81,0,0,0,.67,1.39,15.27,15.27,0,0,0,2.47,1.57l.58.34c.92.6,1.65,1.11,2.17,1.51a5.47,5.47,0,0,1,1.31,1.48,4.07,4.07,0,0,1,.52,2.09,7.59,7.59,0,0,1-.06.78,6.11,6.11,0,0,1-2.23,4.19,7.33,7.33,0,0,1-4.79,1.55A6.34,6.34,0,0,1,123.46,71.43Z"/><path class="cls-1" d="M150.39,55.64a.35.35,0,0,1-.25.1H142.6q-.12,0-.18.15l-.55,4.52q0,.15.12.15h4.7a.29.29,0,0,1,.23.1.26.26,0,0,1,.06.24l-.32,2.82a.41.41,0,0,1-.15.24.35.35,0,0,1-.26.1h-4.7a.16.16,0,0,0-.1,0,.13.13,0,0,0,0,.1l-.58,4.67c0,.1,0,.14.12.14h7.54c.21,0,.31.12.31.35l-.34,2.81a.55.55,0,0,1-.13.25.33.33,0,0,1-.25.1H136.77c-.21,0-.32-.11-.32-.35l2.41-19.6a.48.48,0,0,1,.14-.25.44.44,0,0,1,.26-.1h11.31a.33.33,0,0,1,.24.1.3.3,0,0,1,.05.25l-.34,2.81A.55.55,0,0,1,150.39,55.64Z"/><path class="cls-1" d="M163.06,52.33a.37.37,0,0,1,.24-.1h3.28a.29.29,0,0,1,.23.1.28.28,0,0,1,.06.25l-2.41,19.6a.47.47,0,0,1-.13.25.31.31,0,0,1-.24.1h-3.42a.35.35,0,0,1-.38-.26l-3.92-11.8c0-.06-.07-.09-.11-.09s-.06,0-.06.12l-1.42,11.68a.47.47,0,0,1-.13.25.33.33,0,0,1-.25.1h-3.25c-.21,0-.32-.11-.32-.35l2.41-19.6a.44.44,0,0,1,.15-.25.4.4,0,0,1,.26-.1H157a.35.35,0,0,1,.35.26l3.94,11.81s0,.08.09.08.07,0,.09-.11l1.42-11.69A.47.47,0,0,1,163.06,52.33Z"/></g></g></svg>
