<svg xmlns="http://www.w3.org/2000/svg" viewBox="0 0 77.15 77.15"><defs><style>.cls-1{fill:#fb0390;}</style></defs><g id="Lag_2" data-name="Lag 2"><g id="Lag_1-2" data-name="Lag 1"><path class="cls-1" d="M38.58,77.15A38.58,38.58,0,1,1,77.15,38.58,38.62,38.62,0,0,1,38.58,77.15ZM38.58,2A36.58,36.58,0,1,0,75.15,38.58,36.62,36.62,0,0,0,38.58,2Z"/><path class="cls-1" d="M25.77,46.48V33.7l.25.17L28.74,36c.93.71,1.86,1.41,2.79,2.13l3.11,2.38,3.58,2.75a.28.28,0,0,0,.41,0c1-.78,2-1.55,3-2.32l3-2.27,2.85-2.18,2.48-1.91,1.14-.84V46.48a9.16,9.16,0,0,1-.43.82,1.25,1.25,0,0,1-1.12.61H27.25a1.19,1.19,0,0,1-.89-.38A2.84,2.84,0,0,1,25.77,46.48Z"/><path class="cls-1" d="M38.42,31.72h11a4.12,4.12,0,0,1,.7.05.32.32,0,0,1,.22.17s-.06.15-.12.2c-.8.64-1.61,1.29-2.42,1.91S46,35.47,45.06,36.18s-1.67,1.25-2.5,1.88l-2.83,2.15-1.19.9a.18.18,0,0,1-.25,0l-3.92-3L31,35.55C30,34.77,29,34,28,33.21c-.48-.36-.94-.74-1.41-1.11-.05-.05-.12-.15-.1-.2a.3.3,0,0,1,.2-.14,5.07,5.07,0,0,1,.68,0h11.1Z"/></g></g></svg>
