<svg xmlns="http://www.w3.org/2000/svg" viewBox="0 0 131.94 76.86"><defs><style>.cls-1{fill:#fc0391;}</style></defs><g id="Lag_2" data-name="Lag 2"><g id="Lag_1-2" data-name="Lag 1"><path class="cls-1" d="M37.68,53.24l-1.35,0c0-5.72,22.18-26,38.07-31.3a37.37,37.37,0,0,1,14.8-2c8.23-9.41,24.15-13.15,34.51-14.63l.19,1.34C114,8,99,11.52,90.85,20.11A16.38,16.38,0,0,1,99.67,24a9.4,9.4,0,0,1,2.6,9.77c-1.78,6.8-9.06,13.18-13.91,12.17-2.38-.49-6.11-3.13-4.26-15.24a20.64,20.64,0,0,1,4-9.45,36.91,36.91,0,0,0-13.31,2C58.8,28.52,37.72,48.49,37.68,53.24ZM89.74,21.36a19.4,19.4,0,0,0-4.3,9.51c-1.23,8-.07,13,3.2,13.72,4.17.85,10.72-5.11,12.32-11.2A8.11,8.11,0,0,0,98.74,25,15.64,15.64,0,0,0,89.74,21.36Z"/><path class="cls-1" d="M131.94,5.13A41.1,41.1,0,0,1,119.72,0l3,6.15-1.61,6.65A40.7,40.7,0,0,1,131.94,5.13Z"/><path class="cls-1" d="M0,64.82l3.14-9.34a.19.19,0,0,1,.1-.1.16.16,0,0,1,.13,0l3,.61A3,3,0,0,1,8.23,57,2.33,2.33,0,0,1,8.61,59c0,.08-.06.23-.12.43L7.12,63.46a3.11,3.11,0,0,1-1.53,1.86,3.63,3.63,0,0,1-2.52.31L.13,65A.14.14,0,0,1,0,64.82Zm2.51-1.09L3.66,64a1.17,1.17,0,0,0,.94-.2,1.89,1.89,0,0,0,.67-.91l1.22-3.61A1.71,1.71,0,0,0,6.55,59a1.19,1.19,0,0,0-.09-.89,1,1,0,0,0-.68-.45L4.66,57.4a.1.1,0,0,0-.1.06L2.48,63.65S2.48,63.72,2.52,63.73Z"/><path class="cls-1" d="M16,59.68a.2.2,0,0,1-.13,0L12.17,59s-.07,0-.1,0l-.72,2.15c0,.05,0,.08,0,.09l2.3.47a.14.14,0,0,1,.1.07.15.15,0,0,1,0,.13l-.44,1.34a.24.24,0,0,1-.09.11.23.23,0,0,1-.14,0l-2.29-.47a.07.07,0,0,0-.06,0,.05.05,0,0,0,0,0L10,65.19s0,.07,0,.08l3.68.76a.15.15,0,0,1,.13.2l-.46,1.34a.31.31,0,0,1-.09.11.19.19,0,0,1-.13,0L7.64,66.57a.15.15,0,0,1-.12-.21L10.66,57a.21.21,0,0,1,.1-.11.15.15,0,0,1,.13,0L16.42,58a.14.14,0,0,1,.1.08.11.11,0,0,1,0,.12l-.46,1.34A.23.23,0,0,1,16,59.68Z"/><path class="cls-1" d="M23.84,59.61a.13.13,0,0,1,0,.12l-.46,1.36a.28.28,0,0,1-.08.11.21.21,0,0,1-.13,0l-2.1-.43H21l0,.05-2.61,7.74a.2.2,0,0,1-.09.11.15.15,0,0,1-.13,0l-1.6-.33c-.1,0-.14-.09-.12-.2L19,60.45c0-.05,0-.07,0-.09L17,60a.18.18,0,0,1-.1-.07.15.15,0,0,1,0-.13l.45-1.35a.2.2,0,0,1,.09-.11.15.15,0,0,1,.13,0l6.19,1.28A.16.16,0,0,1,23.84,59.61Z"/><path class="cls-1" d="M33,63.18a.19.19,0,0,1-.13,0l-3.68-.76a.1.1,0,0,0-.1.06l-.72,2.15s0,.08,0,.09l2.3.47a.14.14,0,0,1,.1.07.13.13,0,0,1,0,.12l-.44,1.35a.22.22,0,0,1-.09.1.18.18,0,0,1-.14,0l-2.3-.47s0,0-.05,0,0,0,0,0L27,68.69s0,.07,0,.08l3.68.76c.11,0,.15.08.12.2l-.45,1.34a.22.22,0,0,1-.09.1.15.15,0,0,1-.13,0l-5.52-1.14a.14.14,0,0,1-.12-.2l3.14-9.34a.19.19,0,0,1,.1-.1.15.15,0,0,1,.13,0l5.53,1.14a.13.13,0,0,1,.1.07.15.15,0,0,1,0,.13l-.46,1.34A.23.23,0,0,1,33,63.18Z"/><path class="cls-1" d="M35.89,72.22l-.1-4.09s0-.07-.06-.07l-.86-.18a.07.07,0,0,0-.09.05L33.5,71.7a.19.19,0,0,1-.08.11.17.17,0,0,1-.13,0l-1.61-.33c-.1,0-.14-.09-.12-.2L34.71,62a.24.24,0,0,1,.09-.11.23.23,0,0,1,.14,0l3.34.69a2.38,2.38,0,0,1,1.64,1,2.58,2.58,0,0,1,.28,1.94,2.86,2.86,0,0,1-.14.51,3.39,3.39,0,0,1-.89,1.45,2.91,2.91,0,0,1-1.42.74s-.07,0-.06.1l.23,4.28v.06c0,.09-.09.13-.2.11L36,72.4A.15.15,0,0,1,35.89,72.22Zm.23-8.28-.8,2.36s0,.08,0,.08l1.21.25a1.19,1.19,0,0,0,1-.22,1.63,1.63,0,0,0,.59-1,1,1,0,0,0-.11-.81,1,1,0,0,0-.66-.44l-1.19-.24S36.15,63.9,36.12,63.94Z"/><path class="cls-1" d="M50.46,65l1.6.33a.14.14,0,0,1,.1.07.15.15,0,0,1,0,.13L49,74.89a.24.24,0,0,1-.09.11.15.15,0,0,1-.13,0l-1.61-.33a.14.14,0,0,1-.11-.07.15.15,0,0,1,0-.13l2.06-6.13s0-.06,0-.07,0,0-.07,0l-2,1.84a.25.25,0,0,1-.24.07l-.31-.07a.2.2,0,0,1-.16-.15l-.55-2.36s0-.05-.05-.05a.09.09,0,0,0,0,.06L43.68,73.8a.22.22,0,0,1-.09.1.15.15,0,0,1-.13,0l-1.6-.33a.18.18,0,0,1-.11-.08.13.13,0,0,1,0-.12l3.14-9.34A.16.16,0,0,1,45,64a.2.2,0,0,1,.13,0l1.59.32a.18.18,0,0,1,.16.16l.73,3.06c0,.06,0,.06.09,0l2.54-2.38A.23.23,0,0,1,50.46,65Z"/><path class="cls-1" d="M50.44,75.18l3.14-9.33a.21.21,0,0,1,.1-.11.17.17,0,0,1,.14,0l1.6.33a.14.14,0,0,1,.1.07.15.15,0,0,1,0,.13l-3.14,9.33a.24.24,0,0,1-.09.11.19.19,0,0,1-.13,0l-1.6-.33A.15.15,0,0,1,50.44,75.18Z"/><path class="cls-1" d="M54.82,75.63a2.58,2.58,0,0,1-.36-2.06c0-.1.06-.25.12-.46l1.32-3.88a3.59,3.59,0,0,1,.92-1.49,3.34,3.34,0,0,1,1.45-.83,3.77,3.77,0,0,1,1.77,0A3,3,0,0,1,62,68a2.41,2.41,0,0,1,.38,2,2.34,2.34,0,0,1-.11.41l-.11.3a.23.23,0,0,1-.08.11.17.17,0,0,1-.14,0l-1.6-.32a.16.16,0,0,1-.1-.08.13.13,0,0,1,0-.12l.09-.3a1.71,1.71,0,0,0,.05-.18,1.09,1.09,0,0,0-.13-.82,1,1,0,0,0-.72-.46,1.37,1.37,0,0,0-1,.18,1.58,1.58,0,0,0-.65.87l-1.33,4a1.42,1.42,0,0,0-.06.21,1.08,1.08,0,0,0,.88,1.35,1.39,1.39,0,0,0,1-.14,1.35,1.35,0,0,0,.61-.81l.3-.85a.07.07,0,0,0-.05-.09L58.08,73a.13.13,0,0,1-.1-.07.12.12,0,0,1,0-.13l.42-1.25a.24.24,0,0,1,.09-.11.15.15,0,0,1,.13,0l2.91.6a.14.14,0,0,1,.1.07.15.15,0,0,1,0,.13l-.74,2.2a3.49,3.49,0,0,1-1.6,2,3.57,3.57,0,0,1-2.55.34A2.93,2.93,0,0,1,54.82,75.63Z"/></g></g></svg>
