<svg xmlns="http://www.w3.org/2000/svg" viewBox="0 0 143.2 82.05"><defs><style>.cls-1{fill:#fb0390;}</style></defs><g id="Lag_2" data-name="Lag 2"><g id="Lag_1-2" data-name="Lag 1"><path class="cls-1" d="M35,32.42a36.55,36.55,0,0,0-5.67,12.2,20.56,20.56,0,0,1,10.19-1.18c12.14,1.66,13.61,6,13.41,8.42-.41,4.93-8.59,10.09-15.62,9.87a9.41,9.41,0,0,1-8.63-5.27,16.32,16.32,0,0,1-1.2-9.55C17,52.25,9.32,65.7,5.17,74.77L3.93,74.2C8.29,64.69,16.4,50.5,27.76,45.27a37.44,37.44,0,0,1,6.13-13.62C43.46,17.92,69.22,2.46,74.72,4l-.37,1.3C69.78,4,44.65,18.57,35,32.42ZM29.89,55.86a8.13,8.13,0,0,0,7.46,4.52c6.29.2,13.87-4.39,14.23-8.64.28-3.32-4.18-5.85-12.24-7A19.41,19.41,0,0,0,29,46.21C28.34,49.91,28.6,53.29,29.89,55.86Z"/><path class="cls-1" d="M1.45,82.05A40.84,40.84,0,0,0,0,68.88l5,4.65,6.84.35A40.92,40.92,0,0,0,1.45,82.05Z"/><path class="cls-1" d="M80.8,9.47,84,.13A.22.22,0,0,1,84,0a.18.18,0,0,1,.14,0l2.95.61A3,3,0,0,1,89,1.69a2.29,2.29,0,0,1,.37,1.93,3.35,3.35,0,0,1-.11.43L87.92,8.11A3.12,3.12,0,0,1,86.38,10a3.6,3.6,0,0,1-2.51.31l-3-.61C80.82,9.65,80.78,9.58,80.8,9.47Zm2.52-1.09,1.13.22a1.16,1.16,0,0,0,.94-.2,1.91,1.91,0,0,0,.68-.91l1.21-3.61a1.51,1.51,0,0,0,.07-.26,1.3,1.3,0,0,0-.09-.89,1,1,0,0,0-.68-.45l-1.12-.23a.1.1,0,0,0-.1.06L83.27,8.3A.06.06,0,0,0,83.32,8.38Z"/><path class="cls-1" d="M96.78,4.33a.19.19,0,0,1-.13,0L93,3.6s-.07,0-.1,0L92.14,5.8s0,.08,0,.09l2.29.47a.13.13,0,0,1,.1.07.12.12,0,0,1,0,.13L94.15,7.9a.24.24,0,0,1-.09.11.23.23,0,0,1-.14,0l-2.3-.47s0,0-.05,0a.05.05,0,0,0,0,0l-.76,2.22a.06.06,0,0,0,0,.08l3.68.76a.14.14,0,0,1,.12.2l-.45,1.34a.31.31,0,0,1-.09.11.19.19,0,0,1-.13,0l-5.53-1.13c-.1,0-.14-.09-.12-.21l3.15-9.33a.24.24,0,0,1,.09-.11.18.18,0,0,1,.14,0l5.53,1.13a.16.16,0,0,1,.1.08.13.13,0,0,1,0,.12l-.45,1.34A.24.24,0,0,1,96.78,4.33Z"/><path class="cls-1" d="M104.63,4.26a.13.13,0,0,1,0,.12l-.46,1.36a.31.31,0,0,1-.09.11.19.19,0,0,1-.13,0l-2.1-.43h0a.05.05,0,0,0,0,0l-2.61,7.74a.2.2,0,0,1-.09.11.15.15,0,0,1-.13,0l-1.6-.33a.14.14,0,0,1-.12-.2L99.84,5.1s0-.07,0-.09l-2-.41a.15.15,0,0,1-.1-.07.12.12,0,0,1,0-.13l.46-1.35a.2.2,0,0,1,.09-.11.15.15,0,0,1,.13,0l6.19,1.28A.13.13,0,0,1,104.63,4.26Z"/><path class="cls-1" d="M113.8,7.83a.19.19,0,0,1-.13,0L110,7.09a.1.1,0,0,0-.1.06l-.73,2.15a.07.07,0,0,0,0,.09l2.29.47a.16.16,0,0,1,.11.07.17.17,0,0,1,0,.12l-.44,1.35a.19.19,0,0,1-.1.1.16.16,0,0,1-.13,0l-2.3-.47a0,0,0,0,0,0,0s0,0,0,0l-.76,2.23a.06.06,0,0,0,0,.08l3.68.76c.1,0,.14.08.12.2l-.45,1.34a.22.22,0,0,1-.09.1.15.15,0,0,1-.13,0l-5.53-1.14c-.1,0-.14-.09-.12-.2l3.15-9.34a.22.22,0,0,1,.09-.1.17.17,0,0,1,.14,0l5.53,1.14a.14.14,0,0,1,.1.07.15.15,0,0,1,0,.13l-.45,1.34A.31.31,0,0,1,113.8,7.83Z"/><path class="cls-1" d="M116.69,16.87l-.1-4.09s0-.07-.06-.07l-.87-.18a.06.06,0,0,0-.08.05l-1.28,3.77a.2.2,0,0,1-.09.11.15.15,0,0,1-.13,0l-1.6-.33a.14.14,0,0,1-.12-.2l3.14-9.34a.21.21,0,0,1,.1-.11.22.22,0,0,1,.14,0l3.34.69a2.36,2.36,0,0,1,1.63,1,2.49,2.49,0,0,1,.28,1.94,3,3,0,0,1-.13.51,3.31,3.31,0,0,1-.9,1.45,2.88,2.88,0,0,1-1.41.74s-.07,0-.06.1l.22,4.28v.06c0,.09-.08.13-.2.11l-1.67-.35A.15.15,0,0,1,116.69,16.87Zm.22-8.28L116.12,11c0,.05,0,.08,0,.08l1.21.25a1.21,1.21,0,0,0,1-.22,1.63,1.63,0,0,0,.59-1,1,1,0,0,0-.11-.81,1,1,0,0,0-.67-.44L117,8.54A.1.1,0,0,0,116.91,8.59Z"/><path class="cls-1" d="M131.25,9.68l1.6.33a.14.14,0,0,1,.11.07.15.15,0,0,1,0,.13l-3.14,9.33a.24.24,0,0,1-.09.11.15.15,0,0,1-.13,0L128,19.34a.14.14,0,0,1-.1-.07.15.15,0,0,1,0-.13L129.93,13s0-.06,0-.07,0,0-.06,0l-2,1.84a.24.24,0,0,1-.23.07l-.31-.07a.19.19,0,0,1-.16-.15l-.55-2.36s0-.05,0,0a0,0,0,0,0,0,.05l-2.08,6.14a.27.27,0,0,1-.08.1.18.18,0,0,1-.14,0l-1.6-.33a.16.16,0,0,1-.1-.08.13.13,0,0,1,0-.12l3.14-9.34a.18.18,0,0,1,.08-.11.23.23,0,0,1,.14,0l1.59.32a.19.19,0,0,1,.16.16l.73,3.06c0,.06,0,.06.08,0L131,9.75A.22.22,0,0,1,131.25,9.68Z"/><path class="cls-1" d="M131.23,19.83l3.15-9.33a.24.24,0,0,1,.09-.11.18.18,0,0,1,.14,0l1.6.33a.16.16,0,0,1,.11.07.15.15,0,0,1,0,.13l-3.15,9.33a.23.23,0,0,1-.08.11.21.21,0,0,1-.13,0L131.35,20C131.25,20,131.21,20,131.23,19.83Z"/><path class="cls-1" d="M135.62,20.28a2.54,2.54,0,0,1-.36-2.06c0-.1.06-.25.12-.46l1.31-3.88a3.76,3.76,0,0,1,.92-1.49,3.44,3.44,0,0,1,1.46-.83,3.77,3.77,0,0,1,1.77,0,3,3,0,0,1,1.91,1.12,2.38,2.38,0,0,1,.39,2c0,.09-.06.23-.11.41l-.11.3a.24.24,0,0,1-.09.11.15.15,0,0,1-.13,0l-1.6-.32a.14.14,0,0,1-.1-.08.11.11,0,0,1,0-.12l.09-.3a.44.44,0,0,0,0-.18,1,1,0,0,0-.84-1.28,1.37,1.37,0,0,0-1,.18,1.54,1.54,0,0,0-.65.87L137.3,18.2a1.42,1.42,0,0,0-.06.21,1.14,1.14,0,0,0,.14.88,1.11,1.11,0,0,0,.74.47,1.31,1.31,0,0,0,1.58-1L140,18c0-.05,0-.08,0-.09l-1.08-.22a.14.14,0,0,1-.1-.07.15.15,0,0,1,0-.13l.42-1.25a.24.24,0,0,1,.09-.11.15.15,0,0,1,.13,0l2.9.6a.21.21,0,0,1,.11.07.15.15,0,0,1,0,.13l-.75,2.2a3.45,3.45,0,0,1-1.6,2,3.56,3.56,0,0,1-2.55.34A2.91,2.91,0,0,1,135.62,20.28Z"/></g></g></svg>
