<svg xmlns="http://www.w3.org/2000/svg" viewBox="0 0 77.15 77.15"><defs><style>.cls-1{fill:#fb0390;}</style></defs><g id="Lag_2" data-name="Lag 2"><g id="Lag_1-2" data-name="Lag 1"><path class="cls-1" d="M38.58,77.15A38.58,38.58,0,1,1,77.15,38.58,38.62,38.62,0,0,1,38.58,77.15ZM38.58,2A36.58,36.58,0,1,0,75.15,38.58,36.62,36.62,0,0,0,38.58,2Z"/><path class="cls-1" d="M26.08,32.48a8.86,8.86,0,0,1,1.75-4.61,2.56,2.56,0,0,1,1.37-1c.66-.16,1.34-.29,2-.4a.77.77,0,0,1,.86.39c.28.46.58.91.85,1.37.66,1.16,1.31,2.32,2,3.47a1.08,1.08,0,0,1-.18,1.6c-.61.58-1.28,1.1-1.91,1.67a6,6,0,0,0-.69.74.77.77,0,0,0,0,.85,7.05,7.05,0,0,0,.56,1c.66,1,1.3,2,2,3a14.87,14.87,0,0,0,3.64,3.3c.73.48,1.49.91,2.24,1.36a1.63,1.63,0,0,0,.19.09,1,1,0,0,0,1.48-.29L44.13,43a4.11,4.11,0,0,1,.3-.29.94.94,0,0,1,1.18-.13c.91.54,1.83,1.06,2.74,1.59l2.29,1.34a.82.82,0,0,1,.44.79,5.92,5.92,0,0,1-.58,2.45,3.56,3.56,0,0,1-1.58,1.54,9.43,9.43,0,0,1-2.68,1.06,5.69,5.69,0,0,1-2.72,0,24.07,24.07,0,0,1-5.13-1.94A21.28,21.28,0,0,1,33.69,46a26.81,26.81,0,0,1-4.87-5.75,19.16,19.16,0,0,1-1.7-3.64c-.27-.75-.55-1.5-.75-2.26A17.91,17.91,0,0,1,26.08,32.48Z"/></g></g></svg>
