<?xml version="1.0" encoding="utf-8"?>
<!-- Generator: Adobe Illustrator 25.0.1, SVG Export Plug-In . SVG Version: 6.00 Build 0)  -->
<svg version="1.1" id="Lag_1" xmlns="http://www.w3.org/2000/svg" xmlns:xlink="http://www.w3.org/1999/xlink" x="0px" y="0px"
	 viewBox="0 0 274.8 77.2" style="enable-background:new 0 0 274.8 77.2;" xml:space="preserve">
<style type="text/css">
	.st0{fill:#FB0390;}
</style>
<g id="Lag_2_1_">
	<g id="Lag_1-2">
		<path class="st0" d="M38.6,77.2C17.3,77.2,0,59.9,0,38.6S17.3,0,38.6,0s38.6,17.3,38.6,38.6l0,0C77.1,59.9,59.9,77.1,38.6,77.2z
			 M38.6,2C18.4,2,2,18.4,2,38.6s16.4,36.6,36.6,36.6s36.6-16.4,36.6-36.6l0,0C75.1,18.4,58.8,2,38.6,2z"/>
		<path class="st0" d="M35.7,51.5c0-0.2,0-0.4,0-0.6c0-3.2,0-6.5,0-9.7c0-0.5-0.2-0.6-0.6-0.6c-1,0-2,0-3,0c-0.4,0-0.6-0.1-0.5-0.5
			c0-1.3,0-2.5,0-3.8c0-0.4,0.1-0.6,0.6-0.6c1,0,2,0,3,0c0.4,0,0.5-0.1,0.5-0.5c0-1.2,0-2.4,0-3.6c0-3.1,2.5-5.7,5.7-5.8
			c1.2,0,2.5,0,3.7,0c0.4,0,0.5,0.1,0.5,0.5c0,1.2,0,2.5,0,3.7c0,0.4-0.2,0.5-0.5,0.5h-2.3c-1.1,0-2,0.8-2,1.9v0.1
			c0,0.9,0,1.7,0,2.6c0,0.4,0.2,0.5,0.5,0.5c1.1,0,2.2,0,3.3,0c0.6,0,0.7,0,0.6,0.7c-0.2,1.1-0.3,2.2-0.5,3.4
			c-0.1,0.8-0.1,0.8-0.9,0.8h-2.2c-0.8,0-0.8,0-0.8,0.8v9.6c0,0.2,0,0.4,0,0.7L35.7,51.5z"/>
		<path class="st0" d="M137.4,77.2c-21.3,0-38.6-17.3-38.6-38.6C98.8,17.3,116.1,0,137.4,0S176,17.3,176,38.6l0,0
			C176,59.9,158.7,77.1,137.4,77.2z M137.4,2c-20.2,0-36.6,16.4-36.6,36.6s16.4,36.6,36.6,36.6S174,58.8,174,38.6S157.6,2,137.4,2z"
			/>
		<path class="st0" d="M236.2,77.2c-21.3,0-38.6-17.3-38.6-38.6S214.9,0,236.2,0s38.6,17.3,38.6,38.6l0,0
			C274.8,59.9,257.5,77.1,236.2,77.2z M236.2,2c-20.2,0-36.6,16.4-36.6,36.6s16.4,36.6,36.6,36.6s36.6-16.4,36.6-36.6l0,0
			C272.8,18.4,256.4,2,236.2,2z"/>
		<path class="st0" d="M130.9,51.5c-0.5-0.2-1-0.3-1.5-0.4c-2.7-0.9-4.6-3.5-4.5-6.4c0-4.2,0-8.3,0-12.5c0-3.1,2.2-5.8,5.2-6.5
			c0.5-0.1,1.1-0.2,1.6-0.2h12.2c3.2,0,5.9,2.1,6.6,5.2c0.1,0.5,0.2,1.1,0.2,1.6c0,4,0,8,0,12.1c0.1,3-1.9,5.8-4.8,6.7
			c-0.4,0.1-0.9,0.2-1.3,0.3h-13.7V51.5z M137.8,49.3c2.1,0,4.1,0,6.2,0c0.5,0,1.1-0.1,1.6-0.3c1.9-0.7,3.1-2.5,3-4.5
			c0-4.1,0-8.1,0-12.2c0-0.9-0.2-1.7-0.7-2.5c-0.9-1.4-2.5-2.2-4.1-2.1H132c-0.5,0-0.9,0-1.3,0.1c-2.1,0.5-3.6,2.4-3.6,4.5v12.2
			c-0.1,2.5,1.9,4.6,4.5,4.7c0.1,0,0.2,0,0.3,0L137.8,49.3L137.8,49.3z"/>
		<path class="st0" d="M144.4,38.5c0,3.7-3,6.6-6.6,6.6c-3.7,0-6.6-3-6.6-6.6c0-3.7,3-6.6,6.6-6.6h0.1
			C141.5,31.9,144.5,34.8,144.4,38.5L144.4,38.5z M142.3,38.5c0-2.5-2-4.5-4.5-4.5s-4.5,2-4.5,4.5s2,4.5,4.5,4.5
			S142.3,41,142.3,38.5L142.3,38.5z"/>
		<path class="st0" d="M144.7,33c-0.8,0-1.5-0.7-1.5-1.5s0.6-1.5,1.4-1.5c0.8,0,1.5,0.6,1.5,1.5C146.1,32.4,145.5,33,144.7,33
			L144.7,33z"/>
	</g>
</g>
<g>
	<path class="st0" d="M235.4,51.5c-1.2,0-3.2,0-5.2-0.1c-1.7-0.1-3.3-0.1-5-0.2c-1.1-0.1-2.2-0.1-3.2-0.4c-1.8-0.5-3-1.6-3.5-3.4
		c-0.3-1-0.4-2.1-0.5-3.1c-0.2-2.4-0.3-4.8-0.2-7.2c0.1-2,0.2-4.1,0.5-6.1c0.1-0.4,0.1-0.8,0.3-1.3c0.6-2,1.8-3.1,3.8-3.5
		c1.1-0.2,2.2-0.3,3.3-0.4c3.9-0.3,7.8-0.3,11.7-0.3c1.9,0,3.9,0.1,5.8,0.1c1.9,0.1,3.7,0.1,5.6,0.3c0.5,0.1,1,0.1,1.5,0.2
		c1.9,0.4,3.1,1.6,3.6,3.5c0.2,0.9,0.3,1.7,0.4,2.6c0.3,2.4,0.4,4.8,0.3,7.2c0,2.2-0.1,4.3-0.5,6.5c-0.1,0.6-0.2,1.2-0.4,1.7
		c-0.6,1.7-1.8,2.7-3.5,3.1c-1,0.2-2.1,0.3-3.1,0.4C243.6,51.4,239.9,51.4,235.4,51.5z M232.6,44.1c3.2-1.9,6.4-3.7,9.6-5.5
		c-0.2-0.2-9.3-5.5-9.6-5.5C232.6,36.7,232.6,40.3,232.6,44.1z"/>
</g>
</svg>
